<svg width="31" height="40" viewBox="0 0 31 40" fill="none" xmlns="http://www.w3.org/2000/svg">
<path d="M22.5 4.29993H26.7C27.4426 4.29993 28.1548 4.59493 28.6799 5.12003C29.205 5.64513 29.5 6.35732 29.5 7.09993V35.0999C29.5 35.8425 29.205 36.5547 28.6799 37.0798C28.1548 37.6049 27.4426 37.8999 26.7 37.8999H4.3C3.55739 37.8999 2.8452 37.6049 2.3201 37.0798C1.795 36.5547 1.5 35.8425 1.5 35.0999V7.09993C1.5 6.35732 1.795 5.64513 2.3201 5.12003C2.8452 4.59493 3.55739 4.29993 4.3 4.29993H8.5" stroke="#3BA6EA" stroke-width="3" stroke-linecap="round" stroke-linejoin="round"/>
<path d="M19.7005 1.5H11.3005C9.75409 1.5 8.50049 2.7536 8.50049 4.3V5.7C8.50049 7.2464 9.75409 8.5 11.3005 8.5H19.7005C21.2469 8.5 22.5005 7.2464 22.5005 5.7V4.3C22.5005 2.7536 21.2469 1.5 19.7005 1.5Z" stroke="#3BA6EA" stroke-width="3" stroke-linecap="round" stroke-linejoin="round"/>
<path d="M8.50049 15.5H22.5005" stroke="#3BA6EA" stroke-width="3" stroke-linecap="round" stroke-linejoin="round"/>
<path d="M8.50049 22.5H22.5005" stroke="#3BA6EA" stroke-width="3" stroke-linecap="round" stroke-linejoin="round"/>
<path d="M8.50049 29.5H22.5005" stroke="#3BA6EA" stroke-width="3" stroke-linecap="round" stroke-linejoin="round"/>
</svg>
