<svg width="8" height="10" viewBox="0 0 8 10" fill="none" xmlns="http://www.w3.org/2000/svg">
<path d="M6.85798 5.28191C6.90161 5.25124 6.93743 5.20942 6.96222 5.16021C6.98702 5.11099 7 5.05594 7 5C7 4.94406 6.98702 4.88901 6.96222 4.83979C6.93743 4.79058 6.90161 4.74876 6.85798 4.71809L1.42864 1.04105C1.3852 1.01416 1.33593 1 1.28577 1C1.2356 1 1.18633 1.01416 1.14289 1.04105C1.09873 1.07119 1.06245 1.11288 1.03746 1.1622C1.01246 1.21151 0.999578 1.26683 1.00001 1.32296L1.00001 8.67704C0.999577 8.73317 1.01246 8.78849 1.03746 8.8378C1.06245 8.88712 1.09873 8.92881 1.14289 8.95895C1.18633 8.98584 1.2356 9 1.28576 9C1.33593 9 1.3852 8.98584 1.42864 8.95895L6.85798 5.28191Z" fill="#3BA6EA" stroke="#3BA6EA" stroke-width="2" stroke-linecap="round" stroke-linejoin="round"/>
</svg>
