<svg width="39" height="39" viewBox="0 0 39 39" fill="none" xmlns="http://www.w3.org/2000/svg">
<g clip-path="url(#clip0_187_8)">
<path d="M27.1053 21.3107L36.2146 15.4328C36.5694 15.2176 36.8716 14.9259 37.0992 14.5789C37.3269 14.232 37.4741 13.8385 37.5301 13.4273C37.5862 13.0162 37.5497 12.5977 37.4233 12.2024C37.2969 11.8072 37.0838 11.4452 36.7996 11.1428L27.8574 2.2007C27.5551 1.91646 27.1931 1.70335 26.7978 1.57695C26.4026 1.45056 25.9841 1.41406 25.5729 1.47012C25.1618 1.52619 24.7683 1.67341 24.4213 1.90102C24.0744 2.12863 23.7826 2.43088 23.5674 2.7857L17.5503 11.7836L5.04243 14.5693C4.7564 14.6387 4.49377 14.7824 4.2811 14.9858C4.06843 15.1893 3.91325 15.4453 3.83128 15.728C3.7493 16.0107 3.74342 16.31 3.81424 16.5957C3.88505 16.8814 4.03006 17.1433 4.23458 17.355L21.3667 34.515C21.5836 34.7112 21.8474 34.8482 22.1327 34.9126C22.418 34.977 22.7151 34.9667 22.9952 34.8827C23.2754 34.7986 23.5291 34.6437 23.7318 34.4329C23.9345 34.2221 24.0794 33.9625 24.1524 33.6793L27.1053 21.3107Z" stroke="#3BA6EA" stroke-width="3" stroke-linecap="round" stroke-linejoin="round"/>
<path d="M12.7866 26.13L1.39307 37.6071" stroke="#3BA6EA" stroke-width="3" stroke-linecap="round" stroke-linejoin="round"/>
</g>
<defs>
<clipPath id="clip0_187_8">
<rect width="39" height="39" fill="white"/>
</clipPath>
</defs>
</svg>
