<svg width="39" height="39" viewBox="0 0 39 39" fill="none" xmlns="http://www.w3.org/2000/svg">
<path d="M23.4156 13.9285C24.9541 13.9285 26.2013 12.6813 26.2013 11.1428C26.2013 9.60426 24.9541 8.35706 23.4156 8.35706C21.8771 8.35706 20.6299 9.60426 20.6299 11.1428C20.6299 12.6813 21.8771 13.9285 23.4156 13.9285Z" stroke="#3BA6EA" stroke-width="3" stroke-linecap="round" stroke-linejoin="round"/>
<path d="M12.2727 27.8571C13.042 27.8571 13.6656 27.2335 13.6656 26.4643C13.6656 25.695 13.042 25.0714 12.2727 25.0714C11.5035 25.0714 10.8799 25.695 10.8799 26.4643C10.8799 27.2335 11.5035 27.8571 12.2727 27.8571Z" stroke="#3BA6EA" stroke-width="3" stroke-linecap="round" stroke-linejoin="round"/>
<path d="M12.2725 18.1071C13.811 18.1071 15.0582 16.8599 15.0582 15.3214C15.0582 13.7829 13.811 12.5356 12.2725 12.5356C10.734 12.5356 9.48682 13.7829 9.48682 15.3214C9.48682 16.8599 10.734 18.1071 12.2725 18.1071Z" stroke="#3BA6EA" stroke-width="3" stroke-linecap="round" stroke-linejoin="round"/>
<path d="M26.2569 34.2085C26.2258 33.6682 26.038 33.1486 25.7165 32.7132C25.3949 32.2779 24.9535 31.9457 24.4462 31.7571C23.1862 31.343 22.1153 30.493 21.426 29.3599C20.7366 28.2269 20.4741 26.8851 20.6856 25.5758C20.8971 24.2665 21.5688 23.0755 22.5798 22.2171C23.5908 21.3587 24.8749 20.8892 26.2012 20.8928H31.4104C32.3039 20.8953 33.1849 20.6829 33.979 20.2735C34.7731 19.864 35.4572 19.2696 35.9734 18.5404C36.4896 17.8111 36.8228 16.9684 36.945 16.0834C37.0672 15.1983 36.9748 14.2968 36.6754 13.455C35.5675 10.3265 33.621 7.56277 31.0486 5.46567C28.4763 3.36857 25.377 2.01878 22.0895 1.56379C18.802 1.1088 15.4526 1.56611 12.4074 2.88574C9.3622 4.20538 6.73825 6.33658 4.82223 9.04651C2.90622 11.7564 1.77186 14.9408 1.54308 18.2518C1.3143 21.5628 1.99991 24.8729 3.525 27.8206C5.05009 30.7683 7.35598 33.2401 10.1908 34.9661C13.0255 36.692 16.2802 37.6056 19.599 37.6071C21.238 37.6117 22.8696 37.3866 24.4462 36.9385C25.0252 36.7763 25.5267 36.4113 25.859 35.9102C26.1914 35.409 26.3326 34.8051 26.2569 34.2085V34.2085Z" stroke="#3BA6EA" stroke-width="3" stroke-linecap="round" stroke-linejoin="round"/>
</svg>
