<svg width="31" height="40" viewBox="0 0 31 40" fill="none" xmlns="http://www.w3.org/2000/svg">
<path d="M22.2857 4.27148H26.4429C27.1779 4.27148 27.8828 4.56347 28.4026 5.08322C28.9223 5.60296 29.2143 6.30788 29.2143 7.04291V34.7572C29.2143 35.4922 28.9223 36.1972 28.4026 36.7169C27.8828 37.2366 27.1779 37.5286 26.4429 37.5286H4.27143C3.5364 37.5286 2.83148 37.2366 2.31173 36.7169C1.79199 36.1972 1.5 35.4922 1.5 34.7572V7.04291C1.5 6.30788 1.79199 5.60296 2.31173 5.08322C2.83148 4.56347 3.5364 4.27148 4.27143 4.27148H8.42857" stroke="#3BA6EA" stroke-width="3" stroke-linecap="round" stroke-linejoin="round"/>
<path d="M19.5144 1.5H11.2001C9.66952 1.5 8.42871 2.74081 8.42871 4.27143V5.65714C8.42871 7.18776 9.66952 8.42857 11.2001 8.42857H19.5144C21.045 8.42857 22.2859 7.18776 22.2859 5.65714V4.27143C22.2859 2.74081 21.045 1.5 19.5144 1.5Z" stroke="#3BA6EA" stroke-width="3" stroke-linecap="round" stroke-linejoin="round"/>
<path d="M8.42871 23.6715L13.9716 27.8286L20.9001 16.7429" stroke="#3BA6EA" stroke-width="3" stroke-linecap="round" stroke-linejoin="round"/>
</svg>
